<svg width="24" height="24" viewBox="0 0 24 24" fill="none" xmlns="http://www.w3.org/2000/svg">
<path d="M15 0C15.5523 0 16.0032 0.448943 15.9692 1.00018C15.4734 9.04002 9.04005 15.4734 1.00018 15.9692C0.448943 16.0032 0 15.5523 0 15V9C0 8.44771 0.449957 8.00656 0.998014 7.93835C4.61833 7.48782 7.48782 4.61832 7.93835 0.998014C8.00656 0.449957 8.44771 0 9 0H15Z" fill="#6172F3"/>
<path d="M9 24C8.44771 24 7.99675 23.5511 8.03075 22.9998C8.52664 14.96 14.9599 8.52664 22.9998 8.03075C23.5511 7.99675 24 8.44771 24 9L24 15C24 15.5523 23.55 15.9934 23.002 16.0616C19.3817 16.5122 16.5122 19.3817 16.0616 23.002C15.9934 23.55 15.5523 24 15 24L9 24Z" fill="#6172F3"/>
</svg>
